<svg width="758" height="659" viewBox="0 0 758 659" fill="none" xmlns="http://www.w3.org/2000/svg">
<path d="M383.884 255.807C383.884 182.449 315.043 141 247.518 141C129.244 141 64.6557 268.605 73.7187 466.647C78.5286 571.763 132.164 624.153 196.33 624.153C355.294 624.153 315.076 462.241 331.818 398.962C346.147 344.766 383.884 322.817 383.884 255.807ZM303.262 391.482C298.621 409.058 297.676 430.686 296.697 453.596C295.229 487.6 293.575 526.195 279.685 553.647C273.921 565.666 264.677 575.672 253.155 582.366C239.029 590.487 219.907 594.624 196.313 594.624C172.263 594.624 151.184 584.662 135.37 565.82C116.299 543.112 105.177 508.417 103.203 465.297C100.401 404.229 104.789 350.219 116.215 304.803C127.016 261.919 143.589 228.524 165.513 205.579C187.706 182.331 215.3 170.546 247.501 170.546C275.652 170.546 303.195 179.224 323.127 194.368C343.852 210.222 354.417 230.769 354.417 255.807C354.417 288.409 343.885 306.88 330.553 330.246C320.848 346.978 309.946 366.157 303.262 391.415V391.482Z" fill="#93202B"/>
<path d="M283.314 216.486C274.176 216.482 265.243 219.19 257.644 224.266C250.046 229.343 244.122 236.56 240.624 245.004C237.126 253.449 236.21 262.741 237.991 271.707C239.773 280.672 244.173 288.907 250.634 295.371C257.095 301.835 265.327 306.236 274.289 308.018C283.251 309.801 292.541 308.884 300.982 305.385C309.423 301.885 316.637 295.96 321.711 288.358C326.786 280.756 329.493 271.82 329.489 262.679C329.485 250.429 324.618 238.682 315.96 230.02C307.301 221.358 295.559 216.49 283.314 216.486ZM283.314 285.252C278.85 285.255 274.486 283.934 270.773 281.456C267.06 278.978 264.165 275.453 262.455 271.329C260.744 267.204 260.295 262.665 261.164 258.285C262.033 253.905 264.18 249.882 267.335 246.723C270.49 243.565 274.511 241.413 278.889 240.541C283.266 239.668 287.804 240.114 291.928 241.822C296.052 243.53 299.577 246.424 302.057 250.136C304.538 253.849 305.861 258.214 305.861 262.679C305.853 268.66 303.475 274.394 299.249 278.625C295.022 282.855 289.293 285.239 283.314 285.252Z" fill="#93202B"/>
<path d="M202.844 211.91C199.265 211.91 195.767 212.972 192.791 214.962C189.816 216.951 187.497 219.779 186.128 223.087C184.759 226.395 184.402 230.035 185.101 233.547C185.801 237.058 187.525 240.283 190.057 242.813C192.589 245.344 195.815 247.066 199.325 247.763C202.836 248.459 206.474 248.098 209.78 246.726C213.085 245.353 215.91 243.031 217.896 240.052C219.882 237.074 220.94 233.573 220.937 229.992C220.939 227.616 220.472 225.262 219.564 223.066C218.655 220.87 217.322 218.875 215.641 217.196C213.961 215.516 211.965 214.184 209.769 213.277C207.573 212.37 205.22 211.906 202.844 211.91Z" fill="#93202B"/>
<path d="M647.502 504.331C644.454 502.572 640.996 501.646 637.477 501.647H591.42C589.072 501.647 586.746 501.183 584.578 500.282C582.409 499.381 580.439 498.06 578.782 496.396C577.125 494.732 575.812 492.756 574.919 490.583C574.027 488.41 573.572 486.083 573.581 483.733V342.959C573.581 338.226 575.46 333.687 578.806 330.341C582.151 326.994 586.689 325.114 591.42 325.114H637.477C640.996 325.114 644.454 324.189 647.502 322.429C650.383 320.762 652.486 318.02 653.35 314.805C654.213 311.59 653.767 308.163 652.11 305.276L635.131 275.865C633.462 272.981 630.717 270.877 627.499 270.016C624.281 269.155 620.853 269.607 617.967 271.272L580.568 292.833C578.092 294.256 575.206 294.794 572.384 294.358C569.562 293.923 566.973 292.539 565.041 290.435C561.058 285.877 556.417 281.993 552.299 277.553C550.807 275.582 549.926 273.216 549.767 270.748C549.608 268.281 550.177 265.821 551.405 263.675L572.973 226.312C574.633 223.427 575.081 220.002 574.221 216.786C573.36 213.571 571.261 210.828 568.383 209.158L539.051 192.174C536.172 190.5 532.747 190.038 529.529 190.889C526.31 191.741 523.561 193.837 521.887 196.715L500.352 234.095C498.934 236.561 496.719 238.47 494.071 239.508C491.424 240.545 488.501 240.649 485.787 239.802C480.724 238.113 475.526 236.813 470.277 235.665C467.5 235.04 465.019 233.486 463.243 231.261C461.466 229.036 460.501 226.272 460.505 223.425V180.321C460.505 176.99 459.182 173.795 456.827 171.439C454.473 169.084 451.279 167.76 447.949 167.76H414.009C410.679 167.76 407.485 169.084 405.13 171.439C402.776 173.795 401.453 176.99 401.453 180.321V255.807C401.479 271.741 399.177 287.594 394.618 302.861C394.398 303.582 394.379 304.348 394.561 305.078C394.744 305.809 395.121 306.476 395.653 307.008C396.186 307.541 396.852 307.918 397.583 308.101C398.313 308.283 399.079 308.264 399.799 308.044C507.997 277.756 586.762 406.559 510.731 488.933C468.302 535.532 389.521 534.13 348.712 486.232C348.171 485.618 347.461 485.177 346.671 484.965C345.88 484.753 345.045 484.78 344.27 485.041C343.494 485.303 342.813 485.788 342.313 486.435C341.812 487.083 341.513 487.864 341.455 488.68C338.485 532.577 327.835 583.227 293.136 613.28C292.813 613.554 292.56 613.901 292.398 614.293C292.236 614.685 292.169 615.109 292.204 615.532C292.238 615.954 292.373 616.363 292.597 616.723C292.821 617.083 293.127 617.384 293.491 617.602L322.89 634.587C324.319 635.413 325.896 635.95 327.531 636.167C329.167 636.384 330.83 636.276 332.424 635.849C334.018 635.423 335.512 634.686 336.821 633.682C338.131 632.677 339.229 631.424 340.054 629.994L361.589 592.665C363.004 590.197 365.22 588.286 367.868 587.248C370.516 586.21 373.44 586.108 376.154 586.959C381.217 588.562 386.415 589.947 391.664 591.095C394.441 591.72 396.922 593.274 398.698 595.499C400.475 597.724 401.44 600.488 401.436 603.335V646.439C401.436 649.77 402.759 652.965 405.113 655.321C407.468 657.677 410.662 659 413.992 659H447.932C451.262 659 454.456 657.677 456.811 655.321C459.165 652.965 460.488 649.77 460.488 646.439V603.335C460.484 600.488 461.45 597.724 463.226 595.499C465.002 593.274 467.483 591.72 470.26 591.095C475.509 589.947 480.69 588.562 485.77 586.959C488.485 586.111 491.407 586.215 494.054 587.253C496.702 588.29 498.917 590.199 500.335 592.665L521.87 629.994C522.695 631.424 523.793 632.677 525.103 633.682C526.412 634.686 527.906 635.423 529.5 635.849C531.094 636.276 532.757 636.384 534.393 636.167C536.029 635.95 537.606 635.413 539.034 634.587L568.433 617.602C571.312 615.932 573.411 613.189 574.271 609.974C575.132 606.759 574.683 603.333 573.024 600.448L551.472 563.085C550.051 560.617 549.51 557.738 549.94 554.922C550.369 552.106 551.743 549.519 553.835 547.586C557.75 544.007 561.508 540.253 565.109 536.325C567.04 534.221 569.63 532.837 572.452 532.402C575.274 531.966 578.16 532.504 580.636 533.928L617.967 555.505C620.857 557.159 624.284 557.604 627.499 556.74C630.715 555.876 633.459 553.775 635.131 550.895L652.11 521.485C653.763 518.597 654.206 515.171 653.343 511.957C652.48 508.743 650.38 506.001 647.502 504.331Z" fill="#C92C2A"/>
<path d="M35.9817 397.881H6.27824C2.81086 397.881 0 400.693 0 404.162V483.227C0 486.695 2.81086 489.507 6.27824 489.507H35.9817C39.4491 489.507 42.26 486.695 42.26 483.227V404.162C42.26 400.693 39.4491 397.881 35.9817 397.881Z" fill="black"/>
<path d="M271.567 402.693H211.452C210.627 402.691 209.809 402.852 209.046 403.166C208.284 403.481 207.591 403.944 207.007 404.528C206.424 405.111 205.962 405.804 205.647 406.567C205.332 407.33 205.171 408.148 205.173 408.974V428.018C205.171 428.843 205.332 429.661 205.647 430.424C205.962 431.187 206.424 431.88 207.007 432.464C207.591 433.048 208.284 433.51 209.046 433.825C209.809 434.14 210.627 434.301 211.452 434.299H236.632V445.678C236.637 446.635 236.422 447.58 236.003 448.441C235.585 449.302 234.974 450.055 234.219 450.642C226.827 456.298 219.299 458.898 205.106 458.898C184.347 459.151 168.719 444.294 169.985 412.84C169.985 386.671 178.845 368.842 203.739 368.133C215.198 367.93 224.481 372.809 228.919 382.196C229.423 383.282 230.225 384.202 231.233 384.848C232.24 385.494 233.41 385.839 234.607 385.843H269.019C269.947 385.843 270.863 385.638 271.701 385.242C272.54 384.845 273.28 384.268 273.869 383.551C274.458 382.834 274.881 381.996 275.108 381.096C275.334 380.196 275.359 379.257 275.179 378.347C272.124 362.932 258.775 346.269 239.737 339.161C222.86 332.644 179.959 332.644 163.335 341.963C122.139 359.91 113.363 418.141 132.282 455.285C144.686 482.467 174.474 492.276 204.11 492.276C238.556 492.276 260.412 479.293 270.774 471.121C272.994 469.36 274.786 467.12 276.016 464.567C277.247 462.014 277.884 459.216 277.879 456.382V408.974C277.882 408.145 277.72 407.325 277.403 406.56C277.086 405.794 276.621 405.1 276.034 404.515C275.447 403.931 274.75 403.47 273.983 403.157C273.216 402.844 272.395 402.686 271.567 402.693Z" fill="black"/>
<path d="M488.859 337.253H373.099C372.274 337.251 371.457 337.411 370.694 337.726C369.931 338.041 369.238 338.504 368.655 339.087C368.072 339.671 367.609 340.364 367.294 341.127C366.98 341.89 366.819 342.708 366.821 343.533V483.227C366.819 484.052 366.98 484.87 367.294 485.633C367.609 486.396 368.072 487.089 368.655 487.673C369.238 488.256 369.931 488.719 370.694 489.034C371.457 489.349 372.274 489.51 373.099 489.507H488.859C489.684 489.51 490.501 489.349 491.264 489.034C492.026 488.719 492.719 488.256 493.303 487.673C493.886 487.089 494.349 486.396 494.663 485.633C494.978 484.87 495.139 484.052 495.137 483.227V461.278C495.137 459.613 494.475 458.015 493.298 456.837C492.121 455.659 490.524 454.998 488.859 454.998H417.064C416.231 454.998 415.433 454.667 414.844 454.078C414.255 453.489 413.925 452.69 413.925 451.857V428.102C413.925 427.27 414.255 426.471 414.844 425.882C415.433 425.293 416.231 424.962 417.064 424.962H480.842C482.506 424.958 484.1 424.295 485.276 423.118C486.453 421.941 487.116 420.346 487.12 418.681V400.228C487.12 398.562 486.459 396.965 485.281 395.787C484.104 394.609 482.507 393.947 480.842 393.947H417.064C416.233 393.943 415.437 393.611 414.849 393.023C414.261 392.435 413.929 391.638 413.925 390.807V372.894C413.925 372.061 414.255 371.262 414.844 370.673C415.433 370.084 416.231 369.753 417.064 369.753H488.859C490.524 369.753 492.121 369.092 493.298 367.914C494.475 366.736 495.137 365.138 495.137 363.473V343.601C495.148 342.77 494.994 341.945 494.683 341.174C494.372 340.403 493.911 339.702 493.327 339.111C492.743 338.52 492.047 338.052 491.28 337.733C490.512 337.414 489.689 337.25 488.859 337.253Z" fill="black"/>
<path d="M35.9817 355.926H6.27824C2.81086 355.926 0 358.738 0 362.206V378.415C0 381.883 2.81086 384.695 6.27824 384.695H35.9817C39.4491 384.695 42.26 381.883 42.26 378.415V362.206C42.26 358.738 39.4491 355.926 35.9817 355.926Z" fill="black"/>
<path d="M750.722 337.253H700.091C698.694 337.251 697.337 337.714 696.234 338.571C695.13 339.427 694.344 340.627 693.998 341.98L673.611 421.974C673.5 422.43 673.239 422.836 672.871 423.126C672.502 423.416 672.046 423.573 671.577 423.573C671.108 423.573 670.652 423.416 670.284 423.126C669.915 422.836 669.654 422.43 669.543 421.974L648.92 341.913C648.572 340.565 647.787 339.371 646.687 338.518C645.587 337.666 644.235 337.203 642.844 337.202H592.213C590.548 337.202 588.951 337.864 587.774 339.042C586.596 340.22 585.935 341.817 585.935 343.483V483.227C585.935 484.893 586.596 486.49 587.774 487.668C588.951 488.846 590.548 489.507 592.213 489.507H618.187C619.849 489.503 621.442 488.839 622.615 487.662C623.789 486.485 624.448 484.89 624.448 483.227V390.064C624.449 389.555 624.635 389.064 624.972 388.683C625.309 388.301 625.773 388.055 626.277 387.991C626.782 387.927 627.292 388.049 627.714 388.334C628.135 388.619 628.438 389.048 628.566 389.541L652.852 484.78C653.198 486.134 653.984 487.333 655.088 488.19C656.191 489.046 657.548 489.51 658.945 489.507H684.041C685.437 489.51 686.795 489.046 687.898 488.19C689.001 487.333 689.788 486.134 690.133 484.78L714.487 389.507C714.615 389.015 714.918 388.586 715.339 388.3C715.761 388.015 716.271 387.893 716.776 387.958C717.281 388.022 717.744 388.267 718.081 388.649C718.418 389.03 718.604 389.522 718.605 390.03V483.227C718.603 484.052 718.764 484.87 719.078 485.633C719.393 486.396 719.855 487.089 720.439 487.673C721.022 488.256 721.715 488.719 722.478 489.034C723.241 489.349 724.058 489.51 724.883 489.507H750.789C752.454 489.507 754.051 488.846 755.229 487.668C756.406 486.49 757.067 484.893 757.067 483.227V343.601C757.077 342.765 756.919 341.935 756.603 341.161C756.287 340.387 755.82 339.683 755.229 339.092C754.638 338.501 753.935 338.033 753.161 337.718C752.387 337.402 751.558 337.244 750.722 337.253Z" fill="black"/>
<path d="M432.292 144.022C406.391 164.106 369.519 176.73 354.321 180.531L338.435 187.081L314.301 170.955C309.975 164.649 301.462 155.789 315.391 154.705C351.286 151.912 380.474 139.676 401.974 127.896C421.012 117.465 438.472 94.5439 475.821 81.0795C505.7 70.308 539.365 80.3052 552.463 86.6502C532.697 90.7349 488.256 97.4127 476.309 105.697C456.543 119.402 452.581 128.289 432.292 144.022Z" fill="#93202B"/>
<path d="M103.5 66C89 35.5 55 11 33 0C103.5 0 128 46.5 149 86.5C165.8 118.5 229.333 153.167 252 157L175.5 167.5C156.833 150 140.739 144.33 103.5 66Z" fill="#93202B"/>
</svg>
